<?xml version="1.0" encoding="UTF-8"?>
<svg version="1.1" xmlns="http://www.w3.org/2000/svg" width="512" height="512">
<path d="M0 0 C9.2729303 7.93442697 16.28843425 17.52693639 17.86644852 29.94152582 C18.00715274 33.04216917 18.02699805 36.11948743 17.99879456 39.22319031 C18.00687139 40.98679082 18.00687139 40.98679082 18.01511139 42.78601962 C18.02601659 46.01818938 18.0192701 49.24974412 18.00482833 52.48188126 C17.99364319 55.97951249 18.00573086 59.47707491 18.01501465 62.97470093 C18.02806495 69.02595648 18.02696957 75.07707369 18.01642036 81.12833214 C18.00143743 89.88597409 18.01142736 98.64345478 18.02793955 107.40108762 C18.05436079 121.62359729 18.06526087 135.84607063 18.06420898 150.06860352 C18.0641215 151.34358467 18.0641215 151.34358467 18.06403225 152.64432303 C18.06376639 156.08847934 18.0634491 159.53263563 18.06306899 162.97679193 C18.06210209 172.46442753 18.06343179 181.95206204 18.06616211 191.43969727 C18.066402 192.28955181 18.06664189 193.13940636 18.06688906 194.01501407 C18.07129706 208.19029436 18.08753372 222.36554094 18.1113829 236.54080135 C18.12544123 245.27608948 18.12834463 254.01124943 18.11676001 262.74654195 C18.10943196 268.72970422 18.11250431 274.71280191 18.12371845 280.69595798 C18.12978462 284.14611868 18.13089871 287.59609858 18.11884117 291.04624748 C18.1082298 294.78930797 18.11596461 298.5319027 18.12818909 302.27494812 C18.12061303 303.36084423 18.11303698 304.44674034 18.10523134 305.5655424 C18.14820204 311.76780537 18.81183914 316.43561117 21.5 322.05859375 C25.38098889 325.84255792 28.52388551 327.17903035 33.88252258 327.19662476 C34.7782901 327.20207809 35.67405762 327.20753143 36.5969696 327.21315002 C37.57728653 327.21419235 38.55760345 327.21523468 39.56762695 327.21630859 C40.60205933 327.22138931 41.6364917 327.22647003 42.70227051 327.23170471 C44.95142581 327.24241403 47.2005918 327.251032 49.44976234 327.25782394 C53.00963048 327.26960188 56.56937669 327.28905206 60.12919617 327.3109436 C70.25169827 327.37259664 80.37418815 327.42661297 90.49682617 327.45996094 C96.68602605 327.48090112 102.87500416 327.51620012 109.06407738 327.56071854 C111.42314227 327.57488455 113.7822464 327.58360232 116.1413517 327.58677292 C119.44253377 327.59167918 122.74312695 327.61483093 126.04418945 327.64208984 C127.01843369 327.63908371 127.99267792 327.63607758 128.9964447 327.63298035 C134.24404823 327.69735754 137.97826697 328.092336 142.5 331.05859375 C147.17177343 336.23542377 147.8478341 339.45212873 147.78515625 346.29296875 C147.2889048 351.10592805 144.96185415 353.77393404 141.4375 356.87109375 C138.27312153 358.81055152 135.6690559 359.18543439 132.04396057 359.19903564 C131.13162155 359.20474579 130.21928253 359.21045593 129.27929688 359.21633911 C128.280354 359.21745697 127.28141113 359.21857483 126.25219727 359.21972656 C125.19814194 359.22469147 124.14408661 359.22965637 123.05809021 359.23477173 C119.56085562 359.24940876 116.06366648 359.25620008 112.56640625 359.26171875 C110.1332143 359.26747159 107.70002237 359.27322931 105.26683044 359.2789917 C100.15648182 359.28950789 95.04614894 359.29534564 89.93579102 359.29882812 C83.40936769 359.30429575 76.8831548 359.32828419 70.35679722 359.35680008 C65.32510284 359.37549537 60.29345827 359.38063586 55.2617321 359.382164 C52.85734858 359.38517856 50.45296568 359.39316633 48.04861641 359.40634918 C44.66970361 359.42354374 41.29129318 359.42149601 37.91235352 359.41503906 C36.93162872 359.42425385 35.95090393 359.43346863 34.94046021 359.44296265 C21.17478838 359.3612076 10.01392673 355.32948493 -0.1875 346.05859375 C-11.74971467 333.86086728 -13.8226845 319.1122466 -13.7515564 302.91213989 C-13.7560116 301.16964236 -13.7560116 301.16964236 -13.76055682 299.39194286 C-13.76814406 295.53223989 -13.76172463 291.67269148 -13.75537109 287.81298828 C-13.75699568 285.03280781 -13.76168688 282.25263473 -13.76634216 279.47245789 C-13.77494127 273.5025566 -13.77679162 267.53268494 -13.77439499 261.56277847 C-13.77128741 252.92494159 -13.78296985 244.28716977 -13.79894479 235.64934932 C-13.82485642 221.62366058 -13.84490334 207.59797179 -13.85839844 193.57226562 C-13.85920881 192.73428153 -13.86001918 191.89629743 -13.8608541 191.03291987 C-13.87209071 179.12446442 -13.87736093 167.21601367 -13.88024123 155.30755363 C-13.88054721 154.04784876 -13.88054721 154.04784876 -13.88085938 152.76269531 C-13.88105931 151.92392066 -13.88125925 151.08514602 -13.88146524 150.22095396 C-13.88519709 136.2377361 -13.90426958 122.25458929 -13.93595374 108.27140701 C-13.95486482 99.65349592 -13.96083211 91.03576701 -13.95013656 82.41784088 C-13.94382159 76.51830497 -13.95184614 70.61889993 -13.97119068 64.71939273 C-13.9818791 61.31601158 -13.98601325 57.91294824 -13.97271919 54.50956917 C-13.96164258 50.82045323 -13.97497902 47.13220813 -13.99447632 43.44314575 C-13.98078933 41.82993193 -13.98078933 41.82993193 -13.96682584 40.18412793 C-14.02892128 34.16348297 -14.4509061 30.62545978 -18.5 26.05859375 C-22.08345265 23.4751744 -24.7454754 22.83424826 -29.0625 23.12109375 C-33.2339327 23.80114244 -35.68870179 24.75118409 -38.5 28.05859375 C-41.72210753 34.86010371 -41.92379365 41.52038935 -41.87181091 48.92453003 C-41.87563548 50.0923546 -41.87946004 51.26017918 -41.8834005 52.46339238 C-41.8910455 55.68279398 -41.88541246 58.90184953 -41.87410367 62.12122989 C-41.86521231 65.60190007 -41.87376481 69.08253264 -41.88031006 72.5632019 C-41.88944797 78.58881998 -41.88815194 84.61436181 -41.88012505 90.63998032 C-41.8688698 99.36388216 -41.87795564 108.08767593 -41.89268685 116.81156839 C-41.91643766 130.98293827 -41.92982088 145.15429478 -41.93383789 159.32568359 C-41.93408276 160.17302449 -41.93432763 161.02036539 -41.93457992 161.89338328 C-41.93712544 171.34530428 -41.93769273 180.79722425 -41.93664551 190.24914551 C-41.93631247 193.67635091 -41.93602708 197.10355631 -41.93579102 200.53076172 C-41.93569683 201.7993069 -41.93569683 201.7993069 -41.93560075 203.09347926 C-41.93499527 217.21109134 -41.9499031 231.32864177 -41.97662407 245.44622815 C-41.99240217 254.14454793 -41.99471558 262.84266832 -41.97949005 271.54099013 C-41.97000495 277.50412397 -41.97481138 283.46713787 -41.99070387 289.43025766 C-41.9993746 292.86664699 -42.00159587 296.30271723 -41.98617744 299.73908997 C-41.97278389 303.47257913 -41.98403726 307.20523417 -42.00120544 310.93869019 C-41.98649528 312.5506365 -41.98649528 312.5506365 -41.97148794 314.1951474 C-42.09277677 326.99196407 -47.10168729 337.44661397 -55.75 346.74609375 C-66.75540711 357.12537266 -79.53602899 359.52676524 -94.23828125 359.44677734 C-95.44970795 359.4520343 -96.66113464 359.45729126 -97.90927124 359.46270752 C-101.19451095 359.47355762 -104.47938078 359.47114343 -107.76461411 359.46157026 C-111.2263025 359.45389764 -114.6879687 359.46104012 -118.1496582 359.46572876 C-123.95951681 359.47116444 -129.76926047 359.46405259 -135.57910156 359.44970703 C-142.26614121 359.43338467 -148.9529063 359.43867474 -155.63993931 359.45518625 C-161.4135931 359.46886393 -167.18716495 359.4706903 -172.96082973 359.46287024 C-176.39504422 359.45822801 -179.82913029 359.45747244 -183.26333618 359.46747971 C-187.09631561 359.4751507 -190.92877758 359.4634103 -194.76171875 359.44677734 C-195.87791595 359.45285004 -196.99411316 359.45892273 -198.14413452 359.46517944 C-212.77521225 359.34834113 -225.8235048 355.113161 -236.65625 345.03515625 C-249.4594364 331.30970642 -251.89715727 317.04099219 -251.5 299.05859375 C-252.69625 298.87296875 -253.8925 298.68734375 -255.125 298.49609375 C-271.05593155 294.84473424 -284.8747185 283.79269583 -293.5 270.05859375 C-300.79846106 256.96633067 -302.6790345 242.89461203 -304.72070312 228.19384766 C-304.9227197 226.76629334 -305.12520285 225.33880499 -305.32810974 223.91137695 C-305.75967378 220.86939281 -306.18829894 217.82701517 -306.61460876 214.78429031 C-307.28998489 209.96617973 -307.97395052 205.14931149 -308.65930176 200.33261108 C-310.605257 186.64685702 -312.53912278 172.95940502 -314.46630859 159.27099609 C-315.53418819 151.68661465 -316.6086533 144.10319417 -317.69005346 136.52072847 C-318.37164264 131.73872925 -319.04503456 126.95567174 -319.71221161 122.17164159 C-320.12938239 119.1942431 -320.55420075 116.21797243 -320.98112679 113.24195862 C-321.1765857 111.86863612 -321.36894705 110.4948684 -321.55787468 109.12063217 C-322.99056306 95.67993646 -322.99056306 95.67993646 -330.5 85.05859375 C-333.83766366 83.0425553 -336.77307915 82.6984267 -340.625 82.30859375 C-348.28280309 81.18269902 -354.35721426 78.81710894 -359.4140625 72.76953125 C-364.32509028 65.62410221 -364.5 62.49727963 -364.5 53.05859375 C-281.01 53.05859375 -197.52 53.05859375 -111.5 53.05859375 C-111.5 62.56510149 -111.70926751 68.11164172 -118.296875 74.9140625 C-124.40854618 79.86451616 -131.14374134 81.65922272 -138.75 83.05859375 C-143.51629618 83.96751535 -146.92142843 85.04513305 -150.00939941 88.98382568 C-152.19004939 93.48200782 -152.70323762 98.02234426 -153.41210938 102.94238281 C-153.57878868 104.04054447 -153.74546799 105.13870613 -153.91719818 106.27014542 C-154.45802249 109.86447533 -154.98090814 113.46106472 -155.5 117.05859375 C-155.67379181 118.25070969 -155.84758362 119.44282562 -156.02664185 120.67106628 C-157.14560291 128.36117348 -158.23733682 136.0549915 -159.31938171 143.75035858 C-159.9217568 148.03272089 -160.52952382 152.31430853 -161.13830566 156.59576416 C-161.34908308 158.07850264 -161.55986036 159.56124113 -161.77063751 161.04397964 C-161.87593812 161.78468091 -161.98123873 162.52538217 -162.08973026 163.28852892 C-163.49983127 173.2096589 -164.905997 183.1313231 -166.30029297 193.0546875 C-167.25055962 199.81753902 -168.20839272 206.57927302 -169.17470121 213.33985162 C-169.68229039 216.89326349 -170.18616695 220.44710692 -170.68061829 224.00237274 C-171.23070478 227.95736744 -171.79737359 231.90982282 -172.36523438 235.86230469 C-172.52223312 237.01058746 -172.67923187 238.15887024 -172.84098816 239.34194946 C-175.3825576 256.73958694 -181.01702463 270.53264773 -193.5 283.05859375 C-194.11488281 283.69667969 -194.72976562 284.33476562 -195.36328125 284.9921875 C-201.92728299 291.30318703 -211.43172751 296.72653112 -220.5 298.05859375 C-220.29423741 310.85936579 -220.29423741 310.85936579 -214.078125 321.578125 C-209.60368952 325.57974642 -205.32698499 327.30530614 -199.38343811 327.31929016 C-198.37553726 327.32637497 -197.36763641 327.33345978 -196.32919312 327.34075928 C-195.23450714 327.33828186 -194.13982117 327.33580444 -193.01196289 327.33325195 C-191.85044205 327.33836288 -190.6889212 327.34347382 -189.49220276 327.34873962 C-185.65230152 327.36264084 -181.81257966 327.36167847 -177.97265625 327.359375 C-175.97831212 327.36227918 -173.98396792 327.36518801 -171.98962492 327.36878175 C-165.72068543 327.37986705 -159.45180587 327.38031981 -153.18286133 327.37426758 C-146.72364003 327.36822738 -140.26463655 327.38054204 -133.80545241 327.40183765 C-128.25199882 327.41947135 -122.69861445 327.42545224 -117.14513391 327.4221999 C-113.83170812 327.42038975 -110.51847208 327.42431504 -107.20506477 327.43691444 C-103.5090161 327.44924427 -99.81347217 327.44250738 -96.11743164 327.4309082 C-95.0247699 327.43855194 -93.93210815 327.44619568 -92.80633545 327.45407104 C-85.20521053 327.40680057 -85.20521053 327.40680057 -78.5 324.05859375 C-73.71718355 318.64401567 -73.93470881 313.73326605 -73.99447632 306.71873474 C-73.9883862 305.57121878 -73.98229608 304.42370282 -73.97602141 303.24141365 C-73.9631222 300.0646163 -73.96805142 296.8884251 -73.98051262 293.71164453 C-73.98958159 290.28198706 -73.97554113 286.85241524 -73.96424866 283.42277527 C-73.94775303 277.48058126 -73.94560925 271.53852185 -73.95301437 265.59631157 C-73.96354169 256.99077213 -73.95012527 248.38539694 -73.93054982 239.77987934 C-73.89921105 225.798809 -73.88420497 211.81777338 -73.88085938 197.83666992 C-73.88065539 197.0001196 -73.8804514 196.16356928 -73.88024123 195.30166895 C-73.88003786 194.46411672 -73.87983449 193.62656448 -73.87962496 192.76363188 C-73.87670896 180.90678772 -73.86991342 169.04995432 -73.85839844 157.19311523 C-73.85719049 155.94300598 -73.85719049 155.94300598 -73.85595815 154.66764199 C-73.84217885 140.74675433 -73.82036951 126.82588569 -73.7945286 112.90501553 C-73.77912375 104.32748491 -73.77186439 95.75001674 -73.77532353 87.17247254 C-73.77737168 81.28735248 -73.77266734 75.40226338 -73.76278017 69.51715135 C-73.75737477 66.12718233 -73.75634484 62.73736019 -73.76195335 59.34738159 C-73.76762921 55.66062663 -73.76100892 51.97408112 -73.7515564 48.28733826 C-73.75855122 46.70440661 -73.75855122 46.70440661 -73.76568735 45.08949655 C-73.6882691 29.53210148 -71.17239063 15.6626026 -60.125 3.99609375 C-43.69099752 -11.04283212 -18.10046565 -14.05614286 0 0 Z M-247.2421875 195.4375 C-250.92104475 199.23077147 -252.42545655 202.6365919 -252.66796875 207.91796875 C-252.29868474 212.62419293 -250.35838024 215.28395793 -246.9375 218.37109375 C-242.46974171 221.46415718 -238.85529957 221.71673663 -233.5 221.05859375 C-229.64012604 219.05717762 -226.50553601 216.96411125 -224.5 213.05859375 C-223.41020997 208.64029773 -223.13837086 205.16475348 -224.5625 200.80859375 C-227.52392914 196.60527496 -230.47802411 193.7039052 -235.4375 192.12109375 C-239.9965807 192.02805129 -243.57570905 192.53555629 -247.2421875 195.4375 Z " fill="#000000" transform="translate(364.5,152.94140625)"/>
<path d="M0 0 C0.87688907 -0.0060911 1.75377815 -0.01218221 2.65723962 -0.01845789 C5.5834905 -0.03505212 8.50930454 -0.03031715 11.43559265 -0.0255127 C13.53860423 -0.03285514 15.64161178 -0.04144188 17.74461365 -0.05117798 C23.44926982 -0.07338535 29.15378151 -0.07632499 34.85847497 -0.07443047 C39.62475623 -0.07431072 44.39100692 -0.08287677 49.15727967 -0.09120798 C60.40485658 -0.11043969 71.65235927 -0.11332688 82.89994812 -0.10656738 C94.49309469 -0.09992824 106.08592295 -0.12278665 117.67900497 -0.15988111 C127.64102202 -0.19059702 137.60293679 -0.20193603 147.56500024 -0.1980443 C153.5110347 -0.19597859 159.45682153 -0.20142877 165.40281105 -0.22593689 C170.99669363 -0.24823213 176.59005956 -0.24630263 182.1839447 -0.22600937 C184.23253978 -0.22260416 186.28116982 -0.2276672 188.32971764 -0.24199295 C199.99242891 -0.31789954 209.13758322 -0.36590443 218.5007782 7.42175293 C219.0164032 8.05210449 219.5320282 8.68245605 220.0632782 9.33190918 C220.8676532 10.27356934 220.8676532 10.27356934 221.6882782 11.23425293 C228.41037011 21.7948121 225.0632782 34.16118445 225.0632782 46.39440918 C141.5732782 46.39440918 58.0832782 46.39440918 -27.9367218 46.39440918 C-27.9367218 15.05420299 -27.9367218 15.05420299 -22.04219055 8.18737793 C-21.40926086 7.65757324 -20.77633118 7.12776855 -20.1242218 6.58190918 C-19.49902649 6.03921387 -18.87383118 5.49651855 -18.22969055 4.93737793 C-12.16900128 0.85906062 -7.14109659 -0.04701003 0 0 Z " fill="#000000" transform="translate(27.936721801757813,130.6055908203125)"/>
<path d="M0 0 C20.99156448 17.45327809 20.99156448 17.45327809 21.98828125 27.453125 C22.14615963 33.53559728 22.00703612 37.33245987 17.75 42.0625 C14.22840673 45.15723348 11.09184429 46.22226677 6.4375 46.375 C5.69886719 46.41238281 4.96023437 46.44976562 4.19921875 46.48828125 C-2.29103351 45.35999178 -6.0213183 40.22621272 -9.875 35.375 C-22.07741362 20.64596898 -38.21265796 12.01679545 -57.27197266 9.83056641 C-75.41492064 8.42472077 -92.82221488 14.23968174 -107.125 25.375 C-112.21125658 29.75815641 -116.26101029 34.68603561 -120.25 40.0625 C-125.42640221 46.94073307 -125.42640221 46.94073307 -130.25 48.0625 C-135.88070621 48.50938145 -139.41957542 48.28278305 -144.25 45.0625 C-148.13578668 41.34941495 -149.79428011 38.49239219 -150.40234375 33.28515625 C-149.53041518 20.56394196 -137.3974267 9.04813674 -128.25 1.0625 C-115.4456737 -9.05241034 -101.18620374 -16.32427958 -85.25 -19.9375 C-84.31414062 -20.16179688 -83.37828125 -20.38609375 -82.4140625 -20.6171875 C-53.10021005 -26.6113366 -23.33348875 -18.08435261 0 0 Z " fill="#000000" transform="translate(191.25,21.9375)"/>
<path d="M0 0 C6.16335827 4.80955703 10.8850856 10.02902495 12.1875 17.9375 C12.38802193 22.36440732 11.41584478 25.46979262 9.125 29.3125 C5.51869043 33.10551225 2.2128909 35.10780481 -3.0625 35.625 C-8.18799484 35.20487747 -12.76477072 33.72333174 -16.24609375 29.74609375 C-16.63925781 29.21113281 -17.03242188 28.67617187 -17.4375 28.125 C-19.68575508 25.03928501 -19.68575508 25.03928501 -23.375 24.1875 C-27.72916409 24.34300586 -28.8648968 25.22318356 -31.875 28.3125 C-32.73661268 29.34801616 -33.59064968 30.38987665 -34.4375 31.4375 C-37.3059089 34.82075152 -39.07002861 36.07801731 -43.4609375 36.6484375 C-47.92813077 36.71100323 -51.17387197 36.61844678 -55.3125 34.8125 C-59.22232955 30.99803215 -61.52851853 27.43083324 -62.140625 21.921875 C-61.88115887 13.67085203 -57.5571966 7.81393422 -51.7265625 2.26953125 C-36.29235548 -10.4298426 -16.60183843 -11.23989332 0 0 Z " fill="#000000" transform="translate(151.875,67.6875)"/>
</svg>
